<svg xmlns="http://www.w3.org/2000/svg" width="32" height="32" id="bag"><path d="M12.344 2a.5.5 0 0 0-.344.5v7.063A3.153 3.153 0 0 0 10.187 9 3.195 3.195 0 0 0 7 12.188V14H5.156a.997.997 0 0 0-.437.094l-.063.031c-.074.041-.125.101-.187.156-.272.219-.469.537-.469.906v13.626C4 29.453 4.512 30 5.156 30H17.5a.5.5 0 0 0 .125-.031.5.5 0 0 0 .125.031h9.75a.5.5 0 0 0 .5-.5v-27a.5.5 0 0 0-.5-.5h-15a.5.5 0 0 0-.094 0 .5.5 0 0 0-.062 0zM13 3h14v26h-9v-3.5h7.5v-19h-11v4.844a3.054 3.054 0 0 0-1.5-1.156V3zm5 1v1h4V4h-4zm-2.5 3.5h9v17H18v-9.313C18 14.57 17.513 14 16.875 14H15.5V7.5zM10.187 10c.32 0 .604.068.876.188C9.876 10.588 9 11.68 9 13v1H8v-1.813C8 10.97 8.97 10 10.188 10zM12 11c.224.343.375.741.375 1.188V14H10v-1c0-1.119.884-2 2-2zm1.25.469c.449.365.75.897.75 1.531v1h-.625v-1.813c0-.243-.073-.49-.125-.718zM5.156 15h.875c-.01.064-.031.122-.031.188v.218a.652.652 0 0 1-.281.531c-.153.098-.285.098-.438 0a.656.656 0 0 1-.187-.874c.047-.064.057-.063.062-.063zm1.969 0H9v1.063c-.586.205-1 .784-1 1.437 0 .824.676 1.5 1.5 1.5s1.5-.676 1.5-1.5c0-.653-.414-1.232-1-1.438V15h4v1.063c-.586.205-1 .784-1 1.437 0 .824.676 1.5 1.5 1.5s1.5-.676 1.5-1.5c0-.653-.414-1.232-1-1.438V15h1.875c.04 0 .125.05.125.188V29H7.156C7.061 29 7 28.928 7 28.812V15.406c0-.146.047-.28.094-.344.035-.047.02-.06.031-.062zM5 16.906c.316.114.684.114 1 0v11.907c0 .065.021.123.031.187h-.875C5.061 29 5 28.928 5 28.812V16.907zM9.5 17c.28 0 .5.214.5.5 0 .287-.22.5-.5.5a.49.49 0 0 1-.5-.5c0-.286.22-.5.5-.5zm5 0c.28 0 .5.214.5.5 0 .287-.22.5-.5.5a.49.49 0 0 1-.5-.5c0-.286.22-.5.5-.5zm5.344 9A1 1 0 0 0 19 27a1 1 0 0 0 1 1 1 1 0 0 0 1-1 1 1 0 0 0-1-1 1 1 0 0 0-.156 0z" color="#000" overflow="visible" style="line-height:125%;text-indent:0;text-align:start;text-decoration-line:none;text-decoration-style:solid;text-decoration-color:#000;text-transform:none;block-progression:tb;white-space:normal;isolation:auto;mix-blend-mode:normal;solid-color:#000;solid-opacity:1" font-family="sans-serif" font-weight="400" letter-spacing="0" word-spacing="0"></path></svg>