<svg xmlns="http://www.w3.org/2000/svg"  data-name="Layer 1" viewBox="0 0 512 512" id="invite-a-friend"><path d="M511.932 205.504c-.014-.107-.038-.21-.057-.315a7.517 7.517 0 0 0-.133-.632c-.033-.12-.071-.238-.11-.356a7.414 7.414 0 0 0-.353-.906 7.518 7.518 0 0 0-.273-.522c-.06-.108-.12-.216-.188-.32a7.531 7.531 0 0 0-.36-.51c-.068-.088-.13-.18-.202-.266a7.492 7.492 0 0 0-.547-.583c-.04-.038-.073-.08-.112-.117a7.512 7.512 0 0 0-.698-.572L277.998 33.15a37.423 37.423 0 0 0-43.996 0L3.1 200.406a7.5 7.5 0 0 0-.698.572c-.039.036-.072.078-.11.115a7.463 7.463 0 0 0-.549.585c-.071.086-.134.178-.201.266a7.44 7.44 0 0 0-.361.51c-.067.104-.127.212-.188.32a7.534 7.534 0 0 0-.426.87c-.075.184-.14.37-.201.559-.038.118-.077.234-.109.354-.055.208-.096.42-.133.633-.019.105-.043.208-.057.315a7.496 7.496 0 0 0-.068.975v242a37.542 37.542 0 0 0 37.5 37.5h437a37.542 37.542 0 0 0 37.5-37.5v-242a7.517 7.517 0 0 0-.068-.975ZM242.801 45.3a22.454 22.454 0 0 1 26.398 0l222.516 161.178L392 278.707V176.48a37.542 37.542 0 0 0-37.5-37.5h-197a37.542 37.542 0 0 0-37.5 37.5v102.227l-99.715-72.229Zm.174 217.437a56.866 56.866 0 0 0 29.69 8.348 59.903 59.903 0 0 0 11.74-1.184 28.427 28.427 0 0 1-56.836-.984v-12.459a28.427 28.427 0 0 1 56.789-1.932 43.743 43.743 0 0 1-22.042.268 42.271 42.271 0 0 1-11.546-4.872 7.5 7.5 0 1 0-7.795 12.815Zm24.105 48.173v.76a10.76 10.76 0 1 1-21.52 0v-.599a43.368 43.368 0 0 0 21.52-.16Zm-10.76 26.52a25.792 25.792 0 0 0 20.915-10.75l15.007 7.999a29.838 29.838 0 0 1 10.153 8.933l-33.196 24.045a22.456 22.456 0 0 1-26.398 0l-33.215-24.059a29.817 29.817 0 0 1 10.17-8.918l15.47-8.24a25.724 25.724 0 0 0 21.094 10.99Zm42.977-15.989-17.236-9.187c.004-.195.02-.389.02-.584v-8.049a43.388 43.388 0 0 0 17.35-34.703v-12.46a43.43 43.43 0 1 0-86.862 0v12.46a43.392 43.392 0 0 0 17.99 35.167v7.585c0 .086.008.17.008.256l-17.868 9.517a44.824 44.824 0 0 0-15.255 13.36L135 289.572V176.48a22.526 22.526 0 0 1 22.5-22.5h197a22.526 22.526 0 0 1 22.5 22.5v113.092L314.559 334.8a44.92 44.92 0 0 0-15.262-13.36ZM15 448.48V221.172l139.723 101.207L17.788 459.314A22.356 22.356 0 0 1 15 448.479Zm459.5 22.5h-437a22.37 22.37 0 0 1-8.493-1.67L167.025 331.29l66.977 48.514a37.425 37.425 0 0 0 43.996 0l68.69-49.755 138.317 138.317a22.354 22.354 0 0 1-10.505 2.612Zm22.5-22.5a22.37 22.37 0 0 1-1.817 8.852L358.99 321.139 497 221.172Z"></path></svg>